# xmcd
#
# Track frame offsets: 
#        150
#        15072
#        22159
#        37012
#        49710
#        59385
#        72177
#        82148
#        95093
#        105826
#        120048
#        129960
#        141018
#        144853
#
# Disc length: 2257 seconds
#
# Revision: 0
# Processed by: cddbd v1.5.2PL0 Copyright (c) Steve Scherf et al.
# Submitted via: ExactAudioCopy v1.0b1
#
DISCID=ad08cf0e
DTITLE=Barrelhouse Chuck - Blues Calling
DYEAR=2011
DGENRE=Chicago Blues, Electric Blues, Piano Blues
TTITLE0=I Keep On Drinking
TTITLE1=Half Of A Pint Boogie
TTITLE2=The Alley Blues
TTITLE3=It's You Baby
TTITLE4=Anna Lee
TTITLE5=Barrelhouse Woman #1
TTITLE6=Ain't Got No Money Now
TTITLE7=Church Street Blues
TTITLE8=Blues For Little Brother
TTITLE9=Ten Long Years
TTITLE10=Viola's Stomp
TTITLE11=Six Cold Feet In The Ground
TTITLE12=Gigolo
TTITLE13=(Untitled)
EXTD=
EXTT0=
EXTT1=
EXTT2=
EXTT3=
EXTT4=
EXTT5=
EXTT6=
EXTT7=
EXTT8=
EXTT9=
EXTT10=
EXTT11=
EXTT12=
EXTT13=
PLAYORDER=
